:SAMPLES-PER-SECOND 30
:FULLY-SPECIFIED
:DEGREES
125
root  -9.564 34.8535 -18.1563 -170.782 1.0909 179.656
RightUpLeg  -4.1833 -14.1016 3.77638
RightLeg  -0.518762 -0.46942 0.0343466
RightFoot  3.48071 0.00331844 0.104855
RightToes  -17.0697 -0.0582033 -0.143756
Spine  -3.7595 1.21567 -1.09305
Spine1  -7.54329 2.39652 -1.58789
HEad  -61.6997 -4.93473 11.9619
LeftShoulder1  -1.94126e-019 -3.10601e-018 -2.51263e-017
LeftArm  -8.85055 26.5038 -77.5811
LeftForeArm  34.3186 -15.5043 -2.63091
LeftHand  -0.319955 -0.759813 6.15508
RightShoulder  -4.96962e-017 0 -2.36833e-017
RightArm  -76.6173 7.98455 9.00505
RightForeArm  167.961 42.6579 170.449
RightHand  -0.284053 -1.02896 -7.48534
LeftUpLeg  -4.42366 -2.05142 -2.75388
LeftLeg  -0.125322 14.8296 -0.979594
LeftFoot  4.63168 -0.0463768 1.36404
LeftToes  -8.88204 1.48347e-006 1.01831e-007
126
root  -9.5529 34.8514 -18.1598 -170.761 1.07355 179.644
RightUpLeg  -4.19336 -14.0548 3.79063
RightLeg  -0.528552 -0.549634 0.0403353
RightFoot  3.45533 0.00288245 0.101484
RightToes  -17.0316 -0.0589912 -0.143501
Spine  -3.74468 1.22081 -1.08043
Spine1  -7.51428 2.40969 -1.56073
HEad  -61.7472 -4.82703 11.8587
LeftShoulder1  -1.94126e-019 -3.10601e-018 -2.51263e-017
LeftArm  -8.857 26.5454 -77.6045
LeftForeArm  34.258 -15.5381 -2.63303
LeftHand  -0.310242 -0.638459 6.08026
RightShoulder  -4.96962e-017 0 -2.36833e-017
RightArm  -76.3403 7.86102 9.4132
RightForeArm  168.241 42.6111 170.481
RightHand  -0.280921 -1.00481 -7.47059
LeftUpLeg  -4.44036 -1.99996 -2.74782
LeftLeg  -0.123442 14.7626 -0.971589
LeftFoot  4.65164 -0.0471871 1.36755
LeftToes  -9.02458 1.48347e-006 1.01831e-007
127
root  -9.53923 34.8496 -18.162 -170.746 1.05373 179.628
RightUpLeg  -4.21488 -13.9895 3.80459
RightLeg  -0.504853 -0.635606 0.0464143
RightFoot  3.4118 0.00243043 0.0982503
RightToes  -16.962 -0.0598367 -0.143324
Spine  -3.72116 1.22103 -1.06488
Spine1  -7.46777 2.4136 -1.52744
HEad  -61.8415 -4.67176 11.7389
LeftShoulder1  -1.94126e-019 -3.10601e-018 -2.51263e-017
LeftArm  -8.81097 26.5595 -77.6286
LeftForeArm  34.1404 -15.5986 -2.64068
LeftHand  -0.293081 -0.568153 5.8096
RightShoulder  -4.96962e-017 0 -2.36833e-017
RightArm  -75.9998 7.79744 9.70964
RightForeArm  168.299 42.5532 170.502
RightHand  -0.278839 -1.02869 -7.35678
LeftUpLeg  -4.45662 -1.99787 -2.73464
LeftLeg  -0.122941 14.7228 -0.965551
LeftFoot  4.69448 -0.0482382 1.37602
LeftToes  -9.11674 1.48347e-006 1.01831e-007
128
root  -9.52524 34.8495 -18.1613 -170.74 0.990936 179.603
RightUpLeg  -4.24399 -13.9109 3.80912
RightLeg  -0.448911 -0.780809 0.0563067
RightFoot  3.35523 0.00193798 0.095513
RightToes  -16.8385 -0.0607391 -0.14323
Spine  -3.68805 1.20736 -1.04308
Spine1  -7.40172 2.39035 -1.48082
HEad  -61.9378 -4.54538 11.6141
LeftShoulder1  -1.94126e-019 -3.10601e-018 -2.51263e-017
LeftArm  -8.78703 26.5217 -77.6845
LeftForeArm  34.1432 -15.6308 -2.64474
LeftHand  -0.295646 -0.606451 5.82586
RightShoulder  -4.96962e-017 0 -2.36833e-017
RightArm  -75.6817 7.80698 9.94425
RightForeArm  168.452 42.484 170.533
RightHand  -0.27773 -1.00551 -7.27923
LeftUpLeg  -4.46801 -2.09997 -2.72619
LeftLeg  -0.125677 14.7611 -0.971486
LeftFoot  4.75558 -0.0499403 1.39599
LeftToes  -9.10571 1.48347e-006 1.01831e-007
129
root  -9.50971 34.8501 -18.1585 -170.727 0.882782 179.569
RightUpLeg  -4.27857 -13.9615 3.81369
RightLeg  -0.403179 -0.839888 0.0599191
RightFoot  3.29604 0.00136222 0.0938984
RightToes  -16.7211 -0.0616978 -0.143224
Spine  -3.6571 1.17846 -1.01382
Spine1  -7.33938 2.33705 -1.41637
HEad  -61.9745 -4.42719 11.4797
LeftShoulder1  -1.94126e-019 -3.10601e-018 -2.51263e-017
LeftArm  -8.83271 26.4596 -77.7853
LeftForeArm  34.2056 -15.7012 -2.65299
LeftHand  -0.311357 -0.666988 6.07562
RightShoulder  -4.96962e-017 0 -2.36833e-017
RightArm  -75.425 7.98853 10.2172
RightForeArm  168.996 42.4329 170.583
RightHand  -0.280239 -0.938725 -7.24329
LeftUpLeg  -4.49693 -2.08802 -2.7223
LeftLeg  -0.123938 14.6481 -0.963711
LeftFoot  4.82144 -0.0507632 1.40378
LeftToes  -9.16596 1.48347e-006 1.01831e-007
130
root  -9.48807 34.8509 -18.1506 -170.703 0.846725 179.552
RightUpLeg  -4.31584 -14.0231 3.84349
RightLeg  -0.402728 -0.800261 0.0570795
RightFoot  3.30143 0.00046425 0.0968319
RightToes  -16.729 -0.062712 -0.143313
Spine  -3.64681 1.16727 -0.989901
Spine1  -7.31895 2.31953 -1.36099
HEad  -61.8775 -4.3762 11.3217
LeftShoulder1  -1.94126e-019 -3.10601e-018 -2.51263e-017
LeftArm  -8.73699 26.4362 -77.8766
LeftForeArm  33.9647 -15.8588 -2.67843
LeftHand  -0.290366 -0.401846 5.90631
RightShoulder  -4.96962e-017 0 -2.36833e-017
RightArm  -75.0062 8.22702 10.8401
RightForeArm  169.385 42.42 170.61
RightHand  -0.287122 -0.815388 -7.23721
LeftUpLeg  -4.54104 -1.83982 -2.70395
LeftLeg  -0.119186 14.3719 -0.944749
LeftFoot  4.90524 -0.050836 1.40156
LeftToes  -9.37546 1.48347e-006 1.01831e-007
131
root  -9.46058 34.8543 -18.13 -170.685 0.89624 179.538
RightUpLeg  -4.38065 -14.0968 3.88067
RightLeg  -0.3959 -0.673417 0.0479327
RightFoot  3.38065 -0.000821111 0.105258
RightToes  -16.591 -0.063781 -0.1435
Spine  -3.64008 1.16115 -0.984441
Spine1  -7.30621 2.31334 -1.33108
HEad  -61.7736 -4.26383 11.1464
LeftShoulder1  -1.94126e-019 -3.10601e-018 -2.51263e-017
LeftArm  -8.86134 26.3762 -77.915
LeftForeArm  34.1527 -15.8923 -2.6847
LeftHand  -0.291616 -0.625491 5.73094
RightShoulder  -4.96962e-017 0 -2.36833e-017
RightArm  -73.6943 8.4145 12.2909
RightForeArm  170.045 42.3843 170.66
RightHand  -0.297765 -0.890401 -7.62604
LeftUpLeg  -4.70495 -1.60591 -2.68619
LeftLeg  0.110152 14.2222 -0.878578
LeftFoot  4.87667 -0.0497873 1.38368
LeftToes  -9.43385 1.48347e-006 1.01831e-007
132
root  -9.437 34.8605 -18.0845 -170.648 0.975754 179.462
RightUpLeg  -4.60258 -14.5185 3.86282
RightLeg  -0.217125 -0.157017 0.0106447
RightFoot  3.43543 -0.00390378 0.139334
RightToes  -16.5556 -0.0649042 -0.143792
Spine  -3.62886 1.11219 -1.03879
Spine1  -7.28007 2.21683 -1.36639
HEad  -61.7847 -3.93431 10.9678
LeftShoulder1  -1.94126e-019 -3.10601e-018 -2.51263e-017
LeftArm  -9.10955 26.3328 -77.9851
LeftForeArm  34.1904 -16.0849 -2.71911
LeftHand  -0.295841 -0.586064 5.83883
RightShoulder  -4.96962e-017 0 -2.36833e-017
RightArm  -70.4175 8.23016 15.2058
RightForeArm  171.295 42.3041 170.758
RightHand  -0.316769 -0.991275 -8.29463
LeftUpLeg  -5.42111 -1.59122 -2.7362
LeftLeg  1.38091 14.3135 -0.569322
LeftFoot  4.41457 -0.0431307 1.28054
LeftToes  -9.38841 1.48347e-006 1.01831e-007
